#!OML:ASF E:\Steps\Project 1\Capture day 1\Session 2\Subject.ASF
:FULLY-SPECIFIED
:DEGREES
32
root -1.42044 16.2776 21.4282 -154.857 3.00099 180.115
lowerback -27.8952 -3.4455 -6.52589
upperback 0.308807 -2.07288 0.398816
thorax 15.4896 -1.26808 3.24104
lowerneck -0.416745 -9.0449 -1.06919
upperneck 16.9856 -11.7762 2.83046
head 5.43325 -5.28848 0.505665
rclavicle -4.47266e-015 -6.36111e-015
rhumerus -39.8944 -17.3662 -77.7827
rradius 36.0863
rwrist -3.81883
rhand -8.49801 -53.7406
rfingers 7.12502
rthumb 17.4296 -82.9791
lclavicle -4.47266e-015 -6.36111e-015
lhumerus -31.0346 6.80609 80.5074
lradius 22.825
lwrist -3.91787
lhand -22.081 -14.256
lfingers 7.12502
lthumb 4.3306 15.6798
rfemur -25.7976 9.33677 19.0813
rtibia 10.2612
rfoot -18.1036 -0.686098
rtoes -23.971
lfemur -24.6395 -7.67247 -21.291
ltibia 9.82156
lfoot -7.73745 -0.0440225
ltoes -20.2124
33
root -1.42564 16.2782 21.4341 -154.878 3.0734 180.23
lowerback -27.4878 -3.43844 -6.31269
upperback 0.131475 -2.15411 0.358152
thorax 15.0855 -1.27 3.06202
lowerneck -0.204828 -9.07452 -1.06952
upperneck 17.0358 -11.8063 2.86949
head 5.41666 -5.29587 0.525655
rclavicle -3.18055e-015 -7.95139e-016
rhumerus -40.2682 -17.1447 -77.9003
rradius 36.1517
rwrist -3.98063
rhand -8.44854 -54.2605
rfingers 7.12502
rthumb 17.4772 -83.4949
lclavicle -3.18055e-015 -7.95139e-016
lhumerus -31.3846 6.34221 80.4701
lradius 23.0867
lwrist -3.53525
lhand -22.1806 -14.0384
lfingers 7.12502
lthumb 4.23442 15.8992
rfemur -25.7459 9.40315 19.1939
rtibia 10.1806
rfoot -18.0717 -0.601925
rtoes -24.0319
lfemur -24.6674 -7.66156 -21.1968
ltibia 9.92264
lfoot -7.80236 0.0604811
ltoes -20.2033
34
root -1.43991 16.2817 21.4467 -154.873 3.12873 180.118
lowerback -27.3859 -3.4737 -6.32375
upperback 0.198318 -2.20451 0.305807
thorax 15.1173 -1.29764 2.99237
lowerneck -0.13898 -9.14416 -1.09208
upperneck 16.9496 -11.9142 2.94773
head 5.38763 -5.35129 0.55167
rclavicle -4.96962e-016 1.51076e-014
rhumerus -40.1536 -17.0789 -78.0156
rradius 36.1031
rwrist -4.30616
rhand -8.56634 -54.2546
rfingers 7.12502
rthumb 17.3638 -83.4989
lclavicle -4.96962e-016 1.51076e-014
lhumerus -31.2711 5.98724 80.6034
lradius 23.2877
lwrist -3.30553
lhand -22.4518 -13.9994
lfingers 7.12502
lthumb 3.97246 15.9433
rfemur -25.7835 9.48089 19.0016
rtibia 10.1995
rfoot -18.095 -0.684762
rtoes -23.8575
lfemur -24.7782 -7.70562 -21.4412
ltibia 10.1305
lfoot -7.87281 0.051155
ltoes -20.5963
35
root -1.43559 16.282 21.4506 -154.938 3.35398 180.115
lowerback -27.2653 -3.48996 -6.44761
upperback 0.268082 -2.20344 0.294207
thorax 15.144 -1.31337 3.04914
lowerneck -0.227643 -9.26213 -0.953495
upperneck 17.1187 -12.0659 2.83315
head 5.44338 -5.41675 0.480123
rclavicle -1.2424e-014 -1.59028e-015
rhumerus -40.1389 -16.9585 -78.2087
rradius 36.0772
rwrist -5.09548
rhand -9.59422 -53.3166
rfingers 7.12502
rthumb 16.3744 -82.6454
lclavicle -1.2424e-014 -1.59028e-015
lhumerus -31.2761 5.85863 80.6001
lradius 23.5516
lwrist -3.23713
lhand -22.5109 -13.9862
lfingers 7.12502
lthumb 3.91541 15.9576
rfemur -25.793 10.2021 18.799
rtibia 10.226
rfoot -18.0716 -1.24493
rtoes -23.7591
lfemur -24.7945 -7.59663 -21.439
ltibia 10.253
lfoot -7.97174 0.196937
ltoes -20.1762
36
root -1.43231 16.2807 21.4523 -154.908 3.6333 180.157
lowerback -27.5555 -3.50268 -6.59484
upperback 0.500372 -2.17096 0.338774
thorax 15.5609 -1.33535 3.17828
lowerneck -0.210287 -9.38497 -0.822052
upperneck 16.8856 -12.25 2.79847
head 5.36168 -5.51776 0.445398
rclavicle -4.57205e-015 -3.18055e-015
rhumerus -39.8802 -17.2098 -78.1456
rradius 36.0633
rwrist -4.62455
rhand -9.10135 -52.7402
rfingers 7.12502
rthumb 16.8489 -82.0292
lclavicle -4.57205e-015 -3.18055e-015
lhumerus -30.9811 5.75829 80.7102
lradius 23.8145
lwrist -3.11302
lhand -22.6602 -13.8876
lfingers 7.12502
lthumb 3.77126 16.0588
rfemur -25.9397 10.5924 18.7018
rtibia 10.3098
rfoot -18.0399 -1.37663
rtoes -23.7318
lfemur -24.8928 -7.50051 -21.393
ltibia 10.3223
lfoot -8.04936 0.42485
ltoes -19.9956
37
root -1.44597 16.2796 21.4649 -154.91 3.63371 180.38
lowerback -27.0003 -3.46409 -6.35898
upperback 0.320513 -2.26578 0.465168
thorax 15.0899 -1.35182 3.16905
lowerneck -0.0400845 -9.4532 -0.945171
upperneck 16.8977 -12.3241 2.78351
head 5.3456 -5.56157 0.463985
rclavicle -5.96354e-016 -3.97569e-015
rhumerus -40.1866 -17.0141 -78.0615
rradius 36.08
rwrist -5.47805
rhand -8.7377 -54.9613
rfingers 7.12502
rthumb 17.1989 -84.2201
lclavicle -5.96354e-016 -3.97569e-015
lhumerus -31.1813 5.51933 80.9011
lradius 24.0727
lwrist -2.76899
lhand -22.1072 -13.7191
lfingers 7.12502
lthumb 4.30526 16.2172
rfemur -26.0117 10.2793 19.0417
rtibia 10.4449
rfoot -18.0813 -0.999586
rtoes -24.1117
lfemur -25.0229 -7.5243 -21.2099
ltibia 10.5527
lfoot -8.11869 0.5482
ltoes -20.6855
38
root -1.44977 16.2825 21.4745 -154.917 3.81407 180.404
lowerback -27.1057 -3.41013 -6.28754
upperback 0.558368 -2.21303 0.377707
thorax 15.4075 -1.3419 3.04751
lowerneck -0.318458 -9.41678 -0.956175
upperneck 16.9334 -12.314 2.91751
head 5.41219 -5.55047 0.490858
rclavicle 3.10104e-014 -1.59028e-015
rhumerus -39.8692 -17.4086 -78.106
rradius 35.9838
rwrist -4.92809
rhand -8.49985 -54.5719
rfingers 7.12502
rthumb 17.4278 -83.8106
lclavicle 3.10104e-014 -1.59028e-015
lhumerus -30.6935 5.23897 80.906
lradius 24.1692
lwrist -2.40821
lhand -21.9595 -13.8252
lfingers 7.12502
lthumb 4.44788 16.1081
rfemur -26.1375 10.3099 19.0231
rtibia 10.5959
rfoot -18.0667 -0.944146
rtoes -24.6775
lfemur -25.1932 -7.64047 -21.1502
ltibia 10.8729
lfoot -8.31166 0.809556
ltoes -20.1265
39
root -1.45365 16.285 21.4812 -154.803 4.08449 180.3
lowerback -27.0106 -3.44636 -6.48121
upperback 0.490746 -2.20241 0.380128
thorax 15.2869 -1.34544 3.16362
lowerneck -0.441492 -9.41762 -1.04877
upperneck 17.2249 -12.2926 2.81939
head 5.52301 -5.53729 0.463795
rclavicle 2.98177e-015 -9.54166e-015
rhumerus -39.9399 -17.3245 -78.069
rradius 36.0309
rwrist -4.99638
rhand -9.23922 -55.1585
rfingers 7.12502
rthumb 16.7162 -84.4588
lclavicle 2.98177e-015 -9.54166e-015
lhumerus -30.7915 5.10796 81.0014
lradius 24.3608
lwrist -2.40539
lhand -22.1915 -14.0608
lfingers 7.12502
lthumb 4.22381 15.8771
rfemur -26.3809 10.3472 18.7942
rtibia 10.6837
rfoot -17.9892 -0.841792
rtoes -25.1062
lfemur -25.4846 -7.82711 -21.242
ltibia 11.1836
lfoot -8.5667 1.07543
ltoes -18.9215
40
root -1.46442 16.285 21.4871 -154.786 4.14355 180.381
lowerback -26.8295 -3.45311 -6.36078
upperback 0.460109 -2.2759 0.42541
thorax 15.169 -1.36974 3.1243
lowerneck -0.33973 -9.49768 -1.07978
upperneck 17.2402 -12.3849 2.7464
head 5.51033 -5.58949 0.446189
rclavicle -1.45113e-014 -3.18055e-015
rhumerus -40.0548 -17.4417 -77.8545
rradius 35.8796
rwrist -4.61274
rhand -9.08015 -53.2003
rfingers 7.12502
rthumb 16.8693 -82.4876
lclavicle -1.45113e-014 -3.18055e-015
lhumerus -30.9058 5.07556 81.0851
lradius 24.5459
lwrist -2.52857
lhand -22.2853 -13.9977
lfingers 7.12502
lthumb 4.13332 15.942
rfemur -26.4027 10.1323 18.9089
rtibia 10.6664
rfoot -17.9623 -0.549508
rtoes -25.1791
lfemur -25.627 -7.91236 -21.2064
ltibia 11.4369
lfoot -8.70795 1.16043
ltoes -18.7942
41
root -1.46707 16.2857 21.4917 -154.862 4.263 180.476
lowerback -26.5623 -3.46608 -6.34722
upperback 0.455489 -2.33701 0.487674
thorax 15.0424 -1.40036 3.16863
lowerneck -0.301567 -9.63413 -1.06345
upperneck 17.2518 -12.5567 2.6325
head 5.50328 -5.68175 0.401531
rclavicle -1.39149e-015 7.95139e-016
rhumerus -40.2026 -17.2611 -77.8347
rradius 35.8766
rwrist -4.79107
rhand -9.02323 -53.2697
rfingers 7.12502
rthumb 16.9241 -82.5523
lclavicle -1.39149e-015 7.95139e-016
lhumerus -30.9649 5.03535 81.1282
lradius 24.7274
lwrist -2.42682
lhand -21.9769 -13.5992
lfingers 7.12502
lthumb 4.43108 16.3344
rfemur -26.387 10.2576 18.9584
rtibia 10.7061
rfoot -17.9363 -0.489426
rtoes -24.6899
lfemur -25.6788 -7.75678 -21.1507
ltibia 11.7023
lfoot -8.73673 1.19322
ltoes -19.0326
42
root -1.47426 16.2857 21.5 -154.874 4.36901 180.516
lowerback -26.4249 -3.47133 -6.26171
upperback 0.505402 -2.3839 0.45374
thorax 15.0334 -1.41874 3.06974
lowerneck -0.279662 -9.70757 -1.03541
upperneck 17.1875 -12.6693 2.66791
head 5.48266 -5.73841 0.404188
rclavicle -1.03368e-014 -3.18055e-015
rhumerus -40.2166 -17.1578 -78.0031
rradius 35.9241
rwrist -5.01162
rhand -9.13623 -53.199
rfingers 7.12502
rthumb 16.8153 -82.4909
lclavicle -1.03368e-014 -3.18055e-015
lhumerus -30.9167 4.74462 81.0949
lradius 25.0195
lwrist -2.06217
lhand -22.3213 -13.5599
lfingers 7.12502
lthumb 4.09855 16.3805
rfemur -26.4884 10.2528 18.9432
rtibia 10.8124
rfoot -17.8852 -0.330595
rtoes -24.0494
lfemur -25.826 -7.67309 -21.1525
ltibia 11.9953
lfoot -8.78944 1.21497
ltoes -19.018
